<svg xmlns="http://www.w3.org/2000/svg" viewBox="0 0 900 650" role="img" aria-labelledby="title desc">
  <title id="title">Carpeta de documentos tributarios</title>
  <desc id="desc">Ilustracion abstracta de carpeta, comprobantes y reportes tributarios.</desc>
  <rect width="900" height="650" fill="#f4f5f3"/>
  <path d="M120 210h250l48 54h362v250a42 42 0 0 1-42 42H162a42 42 0 0 1-42-42Z" fill="#e5c570"/>
  <path d="M120 272h660l-54 244a50 50 0 0 1-49 40H172a50 50 0 0 1-49-40Z" fill="#ffffff"/>
  <rect x="205" y="342" width="180" height="18" rx="3" fill="#212832"/>
  <rect x="205" y="392" width="330" height="14" rx="3" fill="#dddddd"/>
  <rect x="205" y="432" width="260" height="14" rx="3" fill="#dddddd"/>
  <rect x="590" y="330" width="105" height="105" rx="8" fill="#789578"/>
  <path d="M616 382h52M642 356v52" stroke="#ffffff" stroke-width="10" stroke-linecap="round"/>
  <circle cx="730" cy="185" r="40" fill="#ff434d" opacity="0.84"/>
</svg>
